<svg id="Capa_1" enable-background="new 0 0 511.999 511.999" height="512" viewBox="0 0 511.999 511.999" width="512" xmlns="http://www.w3.org/2000/svg"><g><path d="m277.572 385.459c-4.187 0-8.436-.679-12.597-2.106l-34.827-11.941c-10.13-3.473-18.469-11.062-22.878-20.82-4.409-9.759-4.595-21.033-.506-30.931l9.802-23.735 14.283 5.898-9.803 23.735c-2.503 6.062-2.394 12.692.306 18.669 2.701 5.977 7.605 10.44 13.809 12.566l34.827 11.941c11.736 4.025 24.639-1.806 29.374-13.273l11.269-27.284 14.283 5.898-11.269 27.284c-6.167 14.935-20.695 24.098-36.073 24.099z" fill="#ffd064"/><path d="m215.504 232.877h-181.908c-14.607 0-26.449-11.842-26.449-26.449 0-14.607 11.842-26.449 26.449-26.449h181.909c14.607 0 26.449 11.842 26.449 26.449-.001 14.608-11.842 26.449-26.45 26.449z" fill="#eaac9d"/><path d="m124.55 317.798c-42.292 0-76.576-34.284-76.576-76.576v-72.546c0-42.292 34.284-76.576 76.576-76.576 42.292 0 76.576 34.284 76.576 76.576v72.546c0 42.292-34.285 76.576-76.576 76.576z" fill="#ffddce"/><path d="m144.205 315.259c-6.272 1.667-12.847 2.545-19.649 2.545-42.298 0-76.582-34.284-76.582-76.582v-72.537c0-42.298 34.284-76.582 76.582-76.582 6.802 0 13.377.879 19.649 2.545-32.784 8.681-56.932 38.541-56.932 74.036v72.537c-.001 35.497 24.148 65.357 56.932 74.038z" fill="#ffcbbe"/><g fill="#2b4d66"><path d="m114.871 201.35c-4.268 0-7.726-3.459-7.726-7.726v-15.469c0-4.267 3.459-7.726 7.726-7.726 4.268 0 7.726 3.459 7.726 7.726v15.469c.001 4.266-3.458 7.726-7.726 7.726z"/><path d="m154.832 201.35c-4.268 0-7.726-3.459-7.726-7.726v-15.469c0-4.267 3.459-7.726 7.726-7.726s7.726 3.459 7.726 7.726v15.469c0 4.266-3.458 7.726-7.726 7.726z"/></g><path d="m58.923 77.071h6.728c20.405 0 36.946 16.541 36.946 36.946v.284c0 20.405-16.541 36.946-36.946 36.946h-6.728c-20.405 0-36.946-16.541-36.946-36.946v-.284c0-20.405 16.541-36.946 36.946-36.946z" fill="#be694f"/><path d="m75.518 149.897c-3.143.885-6.452 1.347-9.864 1.347h-6.722c-20.408 0-36.956-16.534-36.956-36.943v-.282c0-20.408 16.547-36.943 36.956-36.943h6.722c3.412 0 6.722.462 9.864 1.347-15.624 4.297-27.091 18.6-27.091 35.596v.282c0 16.996 11.468 31.299 27.091 35.596z" fill="#aa593d"/><path d="m96.184 103.259c0 29.33 23.777 53.107 53.107 53.107 47.706 0 86.379-38.673 86.379-86.379v-7.038h-101.11c-21.962 0-39.455 18.375-38.376 40.31z" fill="#be694f"/><path d="m166.529 154.645c-5.567 1.129-11.339 1.719-17.24 1.719-29.336 0-53.105-23.769-53.105-53.105-1.078-21.935 16.419-40.304 38.379-40.304h30.709c-21.96 0-39.457 18.369-38.379 40.304-.001 24.68 16.829 45.421 39.636 51.386z" fill="#aa593d"/><path d="m383.334 158.581v203.182l-197.208-67.621v-67.94z" fill="#ffe07d"/><path d="m383.334 299.489v62.274l-197.208-67.621v-22.345z" fill="#ffd064"/><path d="m239.675 417.558c-27.156 20.665-60.255 31.492-93.685 31.492-30.658 0-61.595-9.097-88.523-28.042-25.703-18.09-45.019-43.185-55.867-72.576-4.924-13.341 1.896-28.155 15.247-33.079 13.341-4.924 28.145 1.896 33.079 15.236 7.211 19.553 20.068 36.252 37.189 48.295 35.953 25.301 82.672 24.23 117.018.803l28.86 10.979z" fill="#cbe2ff"/><path d="m209.285 435.566c-19.924 8.9-41.537 13.485-63.294 13.485-30.658 0-61.595-9.097-88.523-28.042-25.703-18.09-45.019-43.185-55.867-72.576-4.924-13.341 1.896-28.155 15.247-33.079 3.482-1.288 7.067-1.772 10.539-1.545-7.119 6.871-9.91 17.554-6.264 27.434 10.848 29.391 30.164 54.486 55.867 72.576 26.929 18.945 57.865 28.042 88.523 28.042 14.824-.001 29.576-2.133 43.772-6.295z" fill="#bed8fb"/><path d="m272.281 383.672c-9.323 13.238-20.356 24.57-32.605 33.883l-35.531-37.87c9.879-6.737 18.739-15.319 26.012-25.662 8.19-11.631 24.261-14.433 35.891-6.243 11.631 8.191 14.423 24.262 6.233 35.892z" fill="#ffddce"/><path d="m272.899 354.941c-11.538-7.428-27.001-4.481-34.975 6.851-7.273 10.343-16.133 18.924-26.012 25.662l-7.768-7.768c9.88-6.737 18.739-15.319 26.012-25.662 8.19-11.631 24.261-14.433 35.892-6.243 2.813 1.988 5.11 4.43 6.851 7.16z" fill="#ffcbbe"/><g fill="#e28086"><path d="m435.505 338.763 1.126-2.1c3.973-7.406 13.001-10.471 20.661-7.014l23.563 10.632c8.44 3.808 11.889 13.968 7.512 22.127l-2.799 5.218c-4.377 8.159-14.749 10.905-22.59 5.98l-21.89-13.75c-7.115-4.47-9.555-13.687-5.583-21.093z"/><path d="m454.203 261.806-.074-2.382c-.263-8.4 6.024-15.569 14.386-16.405l25.722-2.574c9.213-.922 17.28 6.152 17.569 15.407l.185 5.918c.289 9.255-7.32 16.819-16.573 16.474l-25.832-.963c-8.398-.313-15.12-7.075-15.383-15.475z"/><path d="m431.917 185.81-1.255-2.025c-4.427-7.143-2.567-16.495 4.256-21.401l20.989-15.09c7.518-5.405 18.041-3.312 22.919 4.558l3.119 5.033c4.878 7.87 2.07 18.225-6.116 22.553l-22.853 12.082c-7.429 3.928-16.631 1.433-21.059-5.71z"/></g><path d="m127.009 213.376h15.331c7.497 0 13.574 6.077 13.574 13.574v26.85c0 11.73-9.509 21.24-21.24 21.24-11.73 0-21.24-9.509-21.24-21.24v-26.85c.001-7.496 6.078-13.574 13.575-13.574z" fill="#2b4d66"/></g></svg>